<svg xmlns="http://www.w3.org/2000/svg" version="1" viewBox="0 0 406 406"><path d="M23 .9C14.6 3.5 7.1 9.9 2.9 18L.5 22.5v361l2.4 4.5c3.2 6.1 8.6 11.6 14.6 14.8l5 2.7h361l5-2.7c6.6-3.5 11.8-9 14.9-15.8l2.6-5.5v-357l-2.6-5.5c-3.1-6.8-8.3-12.3-14.9-15.8l-5-2.7-179-.2C106.1.2 24.4.5 23 .9zm203.8 66.6c46.6 8.9 85.9 42.3 102.9 87.4 5.5 14.6 7.4 25.5 8 44.6.8 26.8-2.7 43.7-13.7 66.2-19.1 39.1-54.8 66.5-97.7 75-12 2.3-36.6 2.3-48.6 0-57.2-11.3-100.2-55.8-110.4-114.2-2.4-13.7-1.3-41.6 2.1-55.1 6.2-25 17.2-45.2 34.3-63.4 22.4-23.8 52.8-38.8 85.8-42.4 7.4-.8 28.9.3 37.3 1.9z"/><path d="M187.5 79.6c-48.5 7.2-87 39.1-102 84.7-24.1 73.6 22.3 151 97.7 163.2 64.2 10.4 125.2-32.7 139.4-98.5 2.6-11.9 2.6-38.1 0-50-4.1-19.2-11.6-35.6-23.3-51.1-17.7-23.5-40.9-38.6-70.8-46-7.8-2-33.5-3.4-41-2.3zm30.7 54.5c12.6 2.6 24.7 11.1 32 22.3 5.5 8.6 7.8 16.8 7.8 28.3 0 9 .2 9.9 3.6 16.4l3.7 7-.6 12.7c-.3 7.4-1.2 15-2.2 18.2-5.6 18.2-19.4 32.1-38.5 38.6-8.5 2.9-32.9 2.7-42.5-.3-13.7-4.3-26.4-14.8-33-27.3-5.1-9.9-6.5-16.4-6.5-31.2 0-12.4.1-13 3-18.1 2.6-4.7 3-6.3 3-13.4 0-11.1 1.4-17.6 5.6-26.2 6.2-12.7 18.6-22.8 32.5-26.5 6.5-1.8 24.7-2 32.1-.5z"/><path d="M188.3 157.1c-11.9 4.6-18.3 15.4-18.3 30.4v8.5h66v-8.8c0-5.4-.6-10.6-1.6-13.4-2-6.1-7.5-12.3-13.8-15.5-4.5-2.4-6.5-2.7-16.1-3-9.2-.3-11.8 0-16.2 1.8zm8.1 59.8c-11.1 5-12.7 21.4-2.7 27.6 3.2 2 3.2 2.1 3.3 10.1 0 8.9 1.4 11.4 6.2 11.4 4.3 0 6.2-3.3 6.6-11.6.4-7 .6-7.6 4.2-11.2 6.9-6.8 7.2-15.5.9-22.7-2.9-3.3-8-5.5-12.4-5.5-1.1 0-3.8.9-6.1 1.9z"/></svg>